<svg width="178" height="35" viewBox="0 0 178 35" fill="none" xmlns="http://www.w3.org/2000/svg">
<path d="M3 1.5H1.5V3V31.6689V33.1689H3H175H176.5V31.6689V3V1.5H175H3Z" fill="#004C8F" stroke="white" stroke-width="3"/>
<path d="M31.668 3H175V31.6689H31.668V3Z" fill="#004C8F"/>
<path d="M40.7812 24.1165V10.5516H45.2432V15.13H49.4243V10.5516H53.8929V24.1165H49.4243V18.8534H45.2432V24.1165H40.7812ZM60.9539 13.9222H62.1106C62.9432 13.9222 63.5524 14.0085 63.9418 14.1816C64.2299 14.3074 64.4641 14.4955 64.6696 14.7765C64.8571 15.0539 65.0086 15.4038 65.12 15.8435C65.2213 16.2797 65.2752 16.741 65.2752 17.2274C65.2752 18.0207 65.1673 18.6839 64.9325 19.2213C64.7055 19.7581 64.3779 20.1439 63.9562 20.3817C63.5345 20.6238 62.9073 20.7388 62.0783 20.7388L60.9539 20.746V13.9222ZM62.6767 24.1165C63.7291 24.1165 64.6013 24.0303 65.3147 23.8391C66.0323 23.6552 66.6157 23.4102 67.0626 23.1178C67.5172 22.8183 67.9276 22.4151 68.3061 21.9136C68.6811 21.3948 69.0094 20.7424 69.2645 19.9426C69.5281 19.1458 69.6539 18.2477 69.6539 17.2316C69.6539 15.7393 69.3694 14.4776 68.7931 13.4249C68.2091 12.3939 67.416 11.6474 66.4031 11.2083C65.3944 10.7679 64.1904 10.5516 62.7917 10.5516H56.589V24.1165H62.6767ZM71.6983 24.1165V10.5516H82.2797V13.897H76.1022V16.0706H81.044V19.3255H76.1022V24.1165H71.6983ZM97.2225 15.7393H93.0097C92.93 15.0647 92.685 14.5315 92.2777 14.1493C91.8668 13.7742 91.3517 13.5903 90.7173 13.5903C89.9278 13.5903 89.2863 13.897 88.7927 14.5027C88.2955 15.1156 88.0463 16.1065 88.0463 17.4695C88.0463 18.4209 88.1584 19.135 88.3638 19.6215C88.5765 20.1223 88.8754 20.483 89.2467 20.7244C89.6289 20.9659 90.0937 21.0779 90.6664 21.0779C91.3516 21.0779 91.8991 20.9041 92.2993 20.5081C92.7102 20.1367 92.948 19.5819 93.0277 18.839H97.3165C97.2225 19.6826 97.053 20.3889 96.808 20.9659C96.5744 21.5392 96.1557 22.1089 95.5902 22.6817C95.0096 23.2669 94.3119 23.7229 93.5428 24.0195C92.7533 24.3328 91.8416 24.4808 90.7964 24.4808C89.7661 24.4808 88.8035 24.3328 87.9349 24.0303C87.0556 23.7199 86.3128 23.2802 85.7216 22.7284C85.1196 22.1557 84.6512 21.514 84.3163 20.7891C83.8329 19.7694 83.6059 18.6479 83.6059 17.397C83.6059 16.3516 83.7754 15.36 84.1181 14.4524C84.4601 13.5508 84.9327 12.7833 85.5341 12.1632C86.1397 11.5462 86.7992 11.0848 87.5348 10.7751C88.4644 10.3785 89.4881 10.188 90.6233 10.188C91.611 10.188 92.5263 10.3318 93.3913 10.6235C94.2526 10.9159 94.9595 11.3413 95.5105 11.9074C96.0653 12.4662 96.5028 13.1302 96.7972 13.8605C97.0134 14.3763 97.1506 15 97.2225 15.7393M111.514 13.6053C112.144 13.6053 112.552 13.634 112.753 13.6915C113.002 13.7623 113.222 13.9084 113.384 14.1097C113.542 14.3116 113.626 14.5459 113.626 14.8167C113.626 15.1623 113.488 15.4469 113.226 15.6632C112.944 15.8908 112.465 15.9951 111.776 15.9951H110.097V13.6047L111.514 13.6053ZM112.634 24.1165C113.69 24.1165 114.433 24.0662 114.869 23.9728C115.324 23.8615 115.768 23.7043 116.192 23.5037C116.631 23.273 116.97 23.0567 117.193 22.8189C117.54 22.4978 117.795 22.1089 117.983 21.6398C118.17 21.1678 118.264 20.6345 118.264 20.0612C118.264 19.2428 118.062 18.5688 117.652 18.0207C117.241 17.4695 116.689 17.1052 115.994 16.9069C117.172 16.164 117.759 15.2055 117.759 14.0372C117.759 12.83 117.241 11.9074 116.213 11.2802C115.42 10.7967 114.184 10.5516 112.508 10.5516H105.779V24.1165H112.634ZM111.917 18.4352C112.8 18.4352 113.373 18.5431 113.662 18.7707C113.928 18.9906 114.073 19.2932 114.073 19.7005C114.073 20.1115 113.928 20.4362 113.636 20.6633C113.358 20.9047 112.779 21.0054 111.917 21.0054H110.097V18.4352H111.917ZM128.064 19.5568H125.227L126.626 14.6214L128.064 19.5568ZM123.894 24.1165L124.409 22.336H128.849L129.369 24.1165H133.806L128.94 10.5516H124.409L119.54 24.1165H123.894ZM135.679 24.1165V10.5516H139.835L144.524 17.8152V10.5516H148.799V24.1165H144.553L139.964 17.0333V24.1165H135.679ZM151.772 24.1165V10.5516H156.094V15.0251L160.127 10.5516H165.367L160.397 15.6596L165.883 24.1165H160.542L157.279 18.7126L156.093 19.8845V24.1165H151.772Z" fill="white"/>
<path d="M3 3H31.6642V31.6689H3V3Z" fill="#ED232A"/>
<path d="M8.01562 8.01758H26.6495V26.6545H8.01562V8.01758Z" fill="white"/>
<path d="M15.9023 3H18.768V31.6689H15.9023V3Z" fill="white"/>
<path d="M3 15.9048H31.6642V18.7709H3V15.9048Z" fill="white"/>
<path d="M13.0312 13.0352H21.6306V21.6365H13.0312V13.0352Z" fill="#004C8F"/>
</svg>
